<svg width="49" height="49" viewBox="0 0 49 49" fill="none"
                                             xmlns="http://www.w3.org/2000/svg">
                                            <rect x="7.5" y="7.5" width="35" height="35" stroke="#1EA6E3"/>
                                            <path d="M7.5 16L12.9123 17L14.5 19.5L19.0526 20.6585L20.5 25H27L33 29.1951H35.6316L36.8596 32.2439L40.5439 35.2927V37.7317L42.5 39"
                                                  stroke="#1EA6E3" stroke-linecap="round" stroke-linejoin="round"/>
                                            <path d="M8 21L11 19.6667L12 17" stroke="#1EA6E3" stroke-linecap="round"
                                                  stroke-linejoin="round"/>
                                            <path d="M8 38H10L11 42" stroke="#1EA6E3" stroke-linecap="round"
                                                  stroke-linejoin="round"/>
                                            <path d="M8 35L11.6667 35.5833L12.8889 38.5H15.3333L17.1667 41.4167L19 42"
                                                  stroke="#1EA6E3" stroke-linecap="round" stroke-linejoin="round"/>
                                            <path d="M10 39L11.875 35.3226V31.6452L10 28.5806L11.875 25.5161V22.4516L15 20"
                                                  stroke="#1EA6E3" stroke-linecap="round" stroke-linejoin="round"/>
                                            <path d="M11 41L14.0769 40.3939L15.3077 37.3636C16.1282 37.1616 17.7692 36.5152 17.7692 35.5455C17.7692 34.5758 16.9487 30.697 16.5385 28.8788V25.8485V23.4242L19 21"
                                                  stroke="#1EA6E3" stroke-linecap="round" stroke-linejoin="round"/>
                                            <path d="M17 41L19.4 38.5C20.4 37.6667 22.28 35.75 21.8 34.75C21.32 33.75 21.6 31.8333 21.8 31L24.2 27.875L26.5 25"
                                                  stroke="#1EA6E3" stroke-linecap="round" stroke-linejoin="round"/>
                                            <path d="M21 42.5L24 37.4286H26.4L27 34.9524H30.6V31.8571L33 30"
                                                  stroke="#1EA6E3" stroke-linecap="round" stroke-linejoin="round"/>
                                            <path d="M25 42.5L26.25 40.4545H30L30.625 38.5455H33.125L35 36H40"
                                                  stroke="#1EA6E3" stroke-linecap="round" stroke-linejoin="round"/>
                                            <path d="M33.5 42.5L35.8462 40.6L40.1538 39H42" stroke="#1EA6E3"
                                                  stroke-linecap="round" stroke-linejoin="round"/>
                                            <path d="M8 31L12.0385 31.6111L13.1923 33.4444H15.5L16.6538 37.1111L21.2692 38.3333L23 42"
                                                  stroke="#1EA6E3" stroke-linecap="round" stroke-linejoin="round"/>
                                            <path d="M8 28H9.84615L13.5385 28.5833V29.75L19.0769 30.9167L20.9231 33.8333L24.6154 35L28.9231 39.6667L32 42"
                                                  stroke="#1EA6E3" stroke-linecap="round" stroke-linejoin="round"/>
                                            <path d="M37 42L33.9792 39.6774L33.375 37.3548L30.9583 34.4516L27.3333 32.7097L23.7083 30.9677L21.2917 28.0645H18.875L14.0417 26.3226L9.20833 24H8"
                                                  stroke="#1EA6E3" stroke-linecap="round" stroke-linejoin="round"/>
                                            <path d="M8 19L12.8889 21.4211L15.3333 23.8421L18.3889 25.0526L22.6667 26.2632L25.7222 27.4737L30 31.1053H33.0556L35.5 33.5263L36.7222 35.3421L37.9444 37.7632L39.7778 39.5789L41 42"
                                                  stroke="#1EA6E3" stroke-linecap="round" stroke-linejoin="round"/>
                                        </svg>