<svg width="50" height="49" viewBox="0 0 50 49" fill="none"
                                             xmlns="http://www.w3.org/2000/svg">
                                            <rect x="26" y="6.5" width="17" height="39" stroke="#1EA6E3"/>
                                            <path d="M26.5 29.5L42.5 13.5" stroke="#1EA6E3" stroke-linecap="round"
                                                  stroke-linejoin="round"/>
                                            <path d="M26.5 33L42.5 17" stroke="#1EA6E3" stroke-linecap="round"
                                                  stroke-linejoin="round"/>
                                            <path d="M26.5 45L42.5 29" stroke="#1EA6E3" stroke-linecap="round"
                                                  stroke-linejoin="round"/>
                                            <path d="M20.1037 12.1298L12.2055 20.028L11.212 19.0344C11.2118 19.0343 11.2117 19.0341 11.2116 19.034C11.2116 19.034 11.2116 19.034 11.2115 19.034C10.3698 18.19 9.81962 17.0994 9.64103 15.9209C9.46107 14.7335 9.581 13.6928 10.2186 12.4824C10.3554 12.2227 10.5888 11.8992 10.8025 11.626C10.9067 11.4928 11.0016 11.3775 11.0703 11.2956C11.1045 11.2547 11.1322 11.2224 11.151 11.2005L11.1715 11.1767L11.1823 11.1656L11.211 11.1363L11.2115 11.1358C11.7301 10.6172 12.3458 10.2058 13.0234 9.92512C13.701 9.64446 14.4272 9.5 15.1606 9.5C15.894 9.5 16.6202 9.64446 17.2978 9.92512C17.9754 10.2058 18.591 10.6172 19.1096 11.1358L20.1037 12.1298Z"
                                                  stroke="#1EA6E3"/>
                                            <path d="M11.1611 21.3872L21.3116 11.2368" stroke="#1EA6E3"
                                                  stroke-linecap="round" stroke-linejoin="round"/>
                                            <path d="M4.5 45.4999V13.7743C4.5 11.4969 6.3462 9.6507 8.62361 9.6507C9.62559 9.6507 10.5441 10.0081 11.2586 10.6023"
                                                  stroke="#1EA6E3"/>
                                            <circle cx="15.9193" cy="21.07" r="0.634402" fill="#1EA6E3"/>
                                            <circle cx="16.5536" cy="24.2419" r="0.634402" fill="#1EA6E3"/>
                                            <circle cx="20.36" cy="25.5108" r="0.634402" fill="#1EA6E3"/>
                                            <circle cx="17.8224" cy="28.0484" r="0.634402" fill="#1EA6E3"/>
                                            <circle cx="18.4569" cy="18.5324" r="0.634402" fill="#1EA6E3"/>
                                            <circle cx="19.0912" cy="21.7043" r="0.634402" fill="#1EA6E3"/>
                                            <circle cx="22.8976" cy="22.9732" r="0.634402" fill="#1EA6E3"/>
                                            <circle cx="20.9945" cy="15.9948" r="0.634402" fill="#1EA6E3"/>
                                            <circle cx="21.6288" cy="19.1668" r="0.634402" fill="#1EA6E3"/>
                                            <circle cx="24.1664" cy="16.6292" r="0.634402" fill="#1EA6E3"/>
                                        </svg>