<svg width="49" height="49" viewBox="0 0 49 49" fill="none"
                                             xmlns="http://www.w3.org/2000/svg">
                                            <path d="M40.75 22.25H40.25V22.75V41.875C40.25 42.0422 40.1949 42.1801 40.0625 42.3125C39.9301 42.4449 39.7922 42.5 39.625 42.5H34.5V42V22.75V22.25H34H16H15.5V22.75V42V42.5H10.375C10.2078 42.5 10.0699 42.4449 9.93754 42.3125C9.80514 42.1801 9.75 42.0422 9.75 41.875V22.75V22.25H9.25H8.125C7.9578 22.25 7.81993 22.1949 7.68754 22.0625C7.55514 21.9301 7.5 21.7922 7.5 21.625V17.125C7.5 16.9578 7.55514 16.8199 7.68754 16.6875C7.81993 16.5551 7.9578 16.5 8.125 16.5H13.0117H13.2799L13.4282 16.2766L16.4165 11.7766L16.5 11.6509V11.5V8.125C16.5 7.9578 16.5551 7.81993 16.6875 7.68754C16.8199 7.55514 16.9578 7.5 17.125 7.5H32.875C33.0422 7.5 33.1801 7.55514 33.3125 7.68754C33.4449 7.81993 33.5 7.9578 33.5 8.125V11.5V11.6509L33.5835 11.7766L36.5718 16.2766L36.7201 16.5H36.9883H41.875C42.0422 16.5 42.1801 16.5551 42.3125 16.6875C42.4449 16.8199 42.5 16.9578 42.5 17.125V21.625C42.5 21.7922 42.4449 21.9301 42.3125 22.0625C42.1801 22.1949 42.0422 22.25 41.875 22.25H40.75ZM21.2608 42.1715L21.3808 42.5H20.6417L19.8437 41.6564C19.5248 41.3193 19.2424 40.6608 19.0412 39.8945C18.8447 39.1459 18.75 38.3903 18.75 37.9375C18.75 37.2833 18.9337 36.5763 19.3275 35.8107C19.7199 35.0476 20.2424 34.3833 20.8978 33.8153L20.8978 33.8154L20.9018 33.8118C21.767 33.0455 22.4125 32.1975 22.8212 31.2652C23.2178 30.3605 23.4082 29.5051 23.3543 28.7103C23.3052 27.9864 23.1881 27.3153 22.9996 26.6993C22.938 26.4983 22.8734 26.3083 22.8055 26.1302C22.9959 26.23 23.2154 26.346 23.4643 26.4785C24.1747 26.8566 24.8437 27.2627 25.4716 27.6965C26.0938 28.1264 26.7737 28.6742 27.5119 29.3431C28.2367 30 28.8303 30.6735 29.297 31.3625L29.2969 31.3625L29.3027 31.3708C29.9513 32.2877 30.45 33.301 30.7982 34.4131C31.1493 35.5342 31.2937 36.5104 31.2507 37.3494L31.2506 37.35C31.2301 37.7615 31.087 38.5441 30.8091 39.391C30.5308 40.2393 30.1362 41.0925 29.6444 41.6786L28.9549 42.5H27.7946L27.9442 42.3276C28.2233 42.0057 28.5334 41.3979 28.7482 40.7222C28.9657 40.0384 29.1111 39.2066 28.9945 38.4261C28.83 37.3256 28.4852 36.6284 28.0399 35.9855C27.8793 35.7535 27.7019 35.5238 27.5235 35.2928C27.4655 35.2178 27.4075 35.1426 27.3499 35.0672C27.1101 34.7532 26.8605 34.4133 26.604 34L26.0337 33.0812L25.7031 34.1108C25.5383 34.624 25.0069 35.2109 24.3448 35.7846C24.0257 36.061 23.6979 36.3167 23.4038 36.543C23.3651 36.5728 23.3267 36.6023 23.2887 36.6315C23.0467 36.8172 22.822 36.9897 22.6685 37.1257C21.522 38.141 20.4338 39.9072 21.2608 42.1715Z"
                                                  stroke="#1EA6E3"/>
                                        </svg>