<svg width="49" height="49" viewBox="0 0 49 49" fill="none" xmlns="http://www.w3.org/2000/svg">
<path d="M19.7273 22.25C21.9545 19.4375 21.5303 17.25 21.3182 16C28.9545 20.0625 28 26.625 28.6364 26.625C29.9091 26.625 30.4394 24.3333 30.5455 23.1875C32.4545 24.125 35 27.25 35 31C35 37.875 28.9545 41 23.5455 41C18.1364 41 14 36.3125 14 31C14 25.6875 18.346 23.9942 19.7273 22.25Z" stroke="#1EA6E3"/>
<path d="M22 31.25C23.1667 29.7875 22.9444 28.65 22.8333 28C26.8333 30.1125 26.3333 33.525 26.6667 33.525C27.3333 33.525 27.6111 32.3333 27.6667 31.7375C28.6667 32.225 30 33.85 30 35.8C30 39.375 26.8333 41 24 41C21.1667 41 19 38.5625 19 35.8C19 33.0375 21.2765 32.157 22 31.25Z" stroke="#1EA6E3"/>
<rect x="4.5" y="5.5" width="40" height="39" stroke="#1EA6E3"/>
<path d="M22 6L4.5 23.5" stroke="#1EA6E3" stroke-linecap="round" stroke-linejoin="round"/>
<path d="M22 10L4.5 27.5" stroke="#1EA6E3" stroke-linecap="round" stroke-linejoin="round"/>
<path d="M44 31L31 44" stroke="#1EA6E3" stroke-linecap="round" stroke-linejoin="round"/>
</svg>
