<svg width="50" height="49" viewBox="0 0 50 49" fill="none"
                                             xmlns="http://www.w3.org/2000/svg">
                                            <rect x="6" y="6.5" width="18" height="36" stroke="#1EA6E3"/>
                                            <rect x="26" y="6.5" width="18" height="36" stroke="#1EA6E3"/>
                                            <g clip-path="url(#clip0_136:476)">
                                                <path d="M9 7L12.0311 8.75V12.25L9 14L5.96891 12.25V8.75L9 7Z"
                                                      fill="white" stroke="#1EA6E3"/>
                                                <path d="M9 17L12.0311 18.75V22.25L9 24L5.96891 22.25V18.75L9 17Z"
                                                      fill="white" stroke="#1EA6E3"/>
                                                <path d="M9 27L12.0311 28.75V32.25L9 34L5.96891 32.25V28.75L9 27Z"
                                                      fill="white" stroke="#1EA6E3"/>
                                                <path d="M9 37L12.0311 38.75V42.25L9 44L5.96891 42.25V38.75L9 37Z"
                                                      fill="white" stroke="#1EA6E3"/>
                                                <path d="M6 12L9.03109 13.75V17.25L6 19L2.96891 17.25V13.75L6 12Z"
                                                      fill="white" stroke="#1EA6E3"/>
                                                <path d="M6 22L9.03109 23.75V27.25L6 29L2.96891 27.25V23.75L6 22Z"
                                                      fill="white" stroke="#1EA6E3"/>
                                                <path d="M6 32L9.03109 33.75V37.25L6 39L2.96891 37.25V33.75L6 32Z"
                                                      fill="white" stroke="#1EA6E3"/>
                                                <path d="M15 7L18.0311 8.75V12.25L15 14L11.9689 12.25V8.75L15 7Z"
                                                      fill="white" stroke="#1EA6E3"/>
                                                <path d="M15 17L18.0311 18.75V22.25L15 24L11.9689 22.25V18.75L15 17Z"
                                                      fill="white" stroke="#1EA6E3"/>
                                                <path d="M15 27L18.0311 28.75V32.25L15 34L11.9689 32.25V28.75L15 27Z"
                                                      fill="white" stroke="#1EA6E3"/>
                                                <path d="M15 37L18.0311 38.75V42.25L15 44L11.9689 42.25V38.75L15 37Z"
                                                      fill="white" stroke="#1EA6E3"/>
                                                <path d="M12 12L15.0311 13.75V17.25L12 19L8.96891 17.25V13.75L12 12Z"
                                                      fill="white" stroke="#1EA6E3"/>
                                                <path d="M12 22L15.0311 23.75V27.25L12 29L8.96891 27.25V23.75L12 22Z"
                                                      fill="white" stroke="#1EA6E3"/>
                                                <path d="M12 32L15.0311 33.75V37.25L12 39L8.96891 37.25V33.75L12 32Z"
                                                      fill="white" stroke="#1EA6E3"/>
                                                <path d="M21 7L24.0311 8.75V12.25L21 14L17.9689 12.25V8.75L21 7Z"
                                                      fill="white" stroke="#1EA6E3"/>
                                                <path d="M21 17L24.0311 18.75V22.25L21 24L17.9689 22.25V18.75L21 17Z"
                                                      fill="white" stroke="#1EA6E3"/>
                                                <path d="M21 27L24.0311 28.75V32.25L21 34L17.9689 32.25V28.75L21 27Z"
                                                      fill="white" stroke="#1EA6E3"/>
                                                <path d="M21 37L24.0311 38.75V42.25L21 44L17.9689 42.25V38.75L21 37Z"
                                                      fill="white" stroke="#1EA6E3"/>
                                                <path d="M18 12L21.0311 13.75V17.25L18 19L14.9689 17.25V13.75L18 12Z"
                                                      fill="white" stroke="#1EA6E3"/>
                                                <path d="M18 22L21.0311 23.75V27.25L18 29L14.9689 27.25V23.75L18 22Z"
                                                      fill="white" stroke="#1EA6E3"/>
                                                <path d="M18 32L21.0311 33.75V37.25L18 39L14.9689 37.25V33.75L18 32Z"
                                                      fill="white" stroke="#1EA6E3"/>
                                                <path d="M24 12L27.0311 13.75V17.25L24 19L20.9689 17.25V13.75L24 12Z"
                                                      fill="white" stroke="#1EA6E3"/>
                                                <path d="M24 22L27.0311 23.75V27.25L24 29L20.9689 27.25V23.75L24 22Z"
                                                      fill="white" stroke="#1EA6E3"/>
                                                <path d="M24 32L27.0311 33.75V37.25L24 39L20.9689 37.25V33.75L24 32Z"
                                                      fill="white" stroke="#1EA6E3"/>
                                            </g>
                                            <g clip-path="url(#clip1_136:476)">
                                                <path d="M29 7L32.0311 8.75V12.25L29 14L25.9689 12.25V8.75L29 7Z"
                                                      fill="white" stroke="#1EA6E3"/>
                                                <path d="M29 17L32.0311 18.75V22.25L29 24L25.9689 22.25V18.75L29 17Z"
                                                      fill="white" stroke="#1EA6E3"/>
                                                <path d="M29 27L32.0311 28.75V32.25L29 34L25.9689 32.25V28.75L29 27Z"
                                                      fill="white" stroke="#1EA6E3"/>
                                                <path d="M29 37L32.0311 38.75V42.25L29 44L25.9689 42.25V38.75L29 37Z"
                                                      fill="white" stroke="#1EA6E3"/>
                                                <path d="M26 12L29.0311 13.75V17.25L26 19L22.9689 17.25V13.75L26 12Z"
                                                      fill="white" stroke="#1EA6E3"/>
                                                <path d="M26 22L29.0311 23.75V27.25L26 29L22.9689 27.25V23.75L26 22Z"
                                                      fill="white" stroke="#1EA6E3"/>
                                                <path d="M26 32L29.0311 33.75V37.25L26 39L22.9689 37.25V33.75L26 32Z"
                                                      fill="white" stroke="#1EA6E3"/>
                                                <path d="M35 7L38.0311 8.75V12.25L35 14L31.9689 12.25V8.75L35 7Z"
                                                      fill="white" stroke="#1EA6E3"/>
                                                <path d="M35 17L38.0311 18.75V22.25L35 24L31.9689 22.25V18.75L35 17Z"
                                                      fill="white" stroke="#1EA6E3"/>
                                                <path d="M35 27L38.0311 28.75V32.25L35 34L31.9689 32.25V28.75L35 27Z"
                                                      fill="white" stroke="#1EA6E3"/>
                                                <path d="M35 37L38.0311 38.75V42.25L35 44L31.9689 42.25V38.75L35 37Z"
                                                      fill="white" stroke="#1EA6E3"/>
                                                <path d="M32 12L35.0311 13.75V17.25L32 19L28.9689 17.25V13.75L32 12Z"
                                                      fill="white" stroke="#1EA6E3"/>
                                                <path d="M32 22L35.0311 23.75V27.25L32 29L28.9689 27.25V23.75L32 22Z"
                                                      fill="white" stroke="#1EA6E3"/>
                                                <path d="M32 32L35.0311 33.75V37.25L32 39L28.9689 37.25V33.75L32 32Z"
                                                      fill="white" stroke="#1EA6E3"/>
                                                <path d="M41 7L44.0311 8.75V12.25L41 14L37.9689 12.25V8.75L41 7Z"
                                                      fill="white" stroke="#1EA6E3"/>
                                                <path d="M41 17L44.0311 18.75V22.25L41 24L37.9689 22.25V18.75L41 17Z"
                                                      fill="white" stroke="#1EA6E3"/>
                                                <path d="M41 27L44.0311 28.75V32.25L41 34L37.9689 32.25V28.75L41 27Z"
                                                      fill="white" stroke="#1EA6E3"/>
                                                <path d="M41 37L44.0311 38.75V42.25L41 44L37.9689 42.25V38.75L41 37Z"
                                                      fill="white" stroke="#1EA6E3"/>
                                                <path d="M38 12L41.0311 13.75V17.25L38 19L34.9689 17.25V13.75L38 12Z"
                                                      fill="white" stroke="#1EA6E3"/>
                                                <path d="M38 22L41.0311 23.75V27.25L38 29L34.9689 27.25V23.75L38 22Z"
                                                      fill="white" stroke="#1EA6E3"/>
                                                <path d="M38 32L41.0311 33.75V37.25L38 39L34.9689 37.25V33.75L38 32Z"
                                                      fill="white" stroke="#1EA6E3"/>
                                                <path d="M44 12L47.0311 13.75V17.25L44 19L40.9689 17.25V13.75L44 12Z"
                                                      fill="white" stroke="#1EA6E3"/>
                                                <path d="M44 22L47.0311 23.75V27.25L44 29L40.9689 27.25V23.75L44 22Z"
                                                      fill="white" stroke="#1EA6E3"/>
                                                <path d="M44 32L47.0311 33.75V37.25L44 39L40.9689 37.25V33.75L44 32Z"
                                                      fill="white" stroke="#1EA6E3"/>
                                            </g>
                                            <rect x="4" y="4.5" width="42" height="40" stroke="#1EA6E3"/>
                                            <defs>
                                                <clipPath id="clip0_136:476">
                                                    <rect width="17" height="35" fill="white"
                                                          transform="translate(6.5 7)"/>
                                                </clipPath>
                                                <clipPath id="clip1_136:476">
                                                    <rect width="17" height="35" fill="white"
                                                          transform="translate(26.5 7)"/>
                                                </clipPath>
                                            </defs>
                                        </svg>