 <svg width="49" height="49" viewBox="0 0 49 49" fill="none"
                                             xmlns="http://www.w3.org/2000/svg">
                                            <path d="M8.15662 15.624C8.03811 15.479 7.98336 15.294 8.00442 15.1095C8.02547 14.9251 8.1206 14.7564 8.26891 14.6405C9.74772 13.5843 11.426 12.8245 13.2069 12.405C15.9658 11.7315 20.2342 11.5659 24.9001 14.6046C28.2762 16.8032 31.8059 17.4831 35.3911 16.6243C36.9916 16.2506 38.5025 15.5766 39.8397 14.6396C39.9886 14.5256 40.1775 14.4735 40.3655 14.4949C40.5534 14.5163 40.7251 14.6093 40.8432 14.7537C40.9612 14.8982 41.0161 15.0823 40.9959 15.266C40.9757 15.4498 40.8819 15.6183 40.7351 15.7349C39.2563 16.7911 37.5781 17.5509 35.7972 17.9704C34.6993 18.2388 33.5719 18.3748 32.4402 18.3753C30.0391 18.3755 27.1569 17.7591 24.104 15.7708C20.728 13.5722 17.1981 12.8923 13.613 13.7511C12.0124 14.1248 10.5015 14.7988 9.16434 15.7358C9.01542 15.8512 8.82572 15.9043 8.63683 15.8833C8.44793 15.8624 8.27524 15.7691 8.15662 15.624ZM39.8397 24.452C38.5025 25.3889 36.9916 26.063 35.3911 26.4367C31.8059 27.2953 28.2762 26.6154 24.9001 24.4169C20.2342 21.3786 15.9658 21.5438 13.2067 22.2174C11.4259 22.6369 9.74767 23.3966 8.26891 24.4528C8.12211 24.5694 8.02839 24.7379 8.00816 24.9217C7.98793 25.1055 8.04283 25.2896 8.16089 25.434C8.27896 25.5784 8.45064 25.6714 8.63857 25.6928C8.8265 25.7142 9.01547 25.6622 9.16434 25.5481C10.5015 24.6112 12.0124 23.9371 13.613 23.5634C17.1981 22.7045 20.7278 23.3847 24.104 25.5832C27.1569 27.5714 30.0391 28.1878 32.4402 28.1877C35.4198 28.1762 38.3207 27.2528 40.7351 25.5473C40.8803 25.4301 40.9725 25.262 40.9918 25.0791C41.0112 24.8962 40.9563 24.7132 40.8388 24.5695C40.7213 24.4258 40.5507 24.333 40.3638 24.311C40.177 24.2891 39.9887 24.3398 39.8397 24.4521V24.452ZM39.8397 34.2643C38.5025 35.2013 36.9916 35.8753 35.3911 36.249C31.8059 37.1076 28.2762 36.4277 24.9001 34.2293C20.2342 31.1908 15.9658 31.3562 13.2067 32.0297C11.4259 32.4492 9.74767 33.209 8.26891 34.2652C8.12211 34.3818 8.02839 34.5503 8.00816 34.734C7.98793 34.9178 8.04283 35.1019 8.16089 35.2464C8.27896 35.3908 8.45064 35.4838 8.63857 35.5052C8.8265 35.5265 9.01547 35.4745 9.16434 35.3605C10.5015 34.4235 12.0124 33.7494 13.613 33.3758C17.1981 32.5166 20.7278 33.197 24.104 35.3955C27.1569 37.3837 30.0391 38.0002 32.4402 38C35.4198 37.9886 38.3207 37.0652 40.7351 35.3596C40.8803 35.2425 40.9725 35.0744 40.9918 34.8915C41.0112 34.7085 40.9563 34.5255 40.8388 34.3818C40.7213 34.2382 40.5507 34.1453 40.3638 34.1234C40.177 34.1014 39.9887 34.1521 39.8397 34.2645V34.2643Z"
                                                  fill="#1EA6E3"/>
                                        </svg>