<svg width="50" height="49" viewBox="0 0 50 49" fill="none"
                                             xmlns="http://www.w3.org/2000/svg">
                                            <path d="M25.5 32L10.5 18.5L25.5 5L40.5 18.5L25.5 32Z" stroke="#1EA6E3"
                                                  stroke-linecap="round" stroke-linejoin="round"/>
                                            <path d="M10.5 24L25.5 37L40.5 24" stroke="#1EA6E3" stroke-linecap="round"
                                                  stroke-linejoin="round"/>
                                            <path d="M10.5 29L25.5 42L40.5 29" stroke="#1EA6E3" stroke-linecap="round"
                                                  stroke-linejoin="round"/>
                                            <path d="M12.5 20L27 7" stroke="#1EA6E3" stroke-linecap="round"
                                                  stroke-linejoin="round" stroke-dasharray="2 3"/>
                                            <path d="M14.5 22L29 9" stroke="#1EA6E3" stroke-linecap="round"
                                                  stroke-linejoin="round" stroke-dasharray="2 3"/>
                                            <path d="M16.5 24L31 11" stroke="#1EA6E3" stroke-linecap="round"
                                                  stroke-linejoin="round" stroke-dasharray="2 3"/>
                                            <path d="M19.5 25.5L33.5 13" stroke="#1EA6E3" stroke-linecap="round"
                                                  stroke-linejoin="round" stroke-dasharray="2 3"/>
                                            <path d="M24.5 30L39 17" stroke="#1EA6E3" stroke-linecap="round"
                                                  stroke-linejoin="round" stroke-dasharray="2 3"/>
                                            <path d="M21.5 28L36 15" stroke="#1EA6E3" stroke-linecap="round"
                                                  stroke-linejoin="round" stroke-dasharray="2 3"/>
                                            <path d="M45.8383 25.596L45.8383 25.596L45.8443 25.5975L46 25.636V31.0573C46 35.5325 43.6925 38.6193 41.3365 40.6069C40.1581 41.6011 38.9747 42.3132 38.0798 42.7764C37.6328 43.0078 37.2597 43.1761 36.9978 43.2856C36.8668 43.3405 36.7647 43.3801 36.6962 43.4053C36.6849 43.4095 36.6748 43.4131 36.6658 43.4164H36.6592L36.5801 43.4436L36.5 43.4712L36.4247 43.4452C36.2682 43.3875 33.9605 42.5229 31.6658 40.5909C29.3087 38.6065 27 35.5285 27 31.0573V25.636L27.1557 25.5975L27.1557 25.5975L27.1608 25.5962C28.8062 25.171 30.414 24.6173 31.9687 23.9407C33.4949 23.2945 34.9684 22.5354 36.3762 21.6699L36.3762 21.6699L36.3815 21.6665L36.5062 21.5877L36.6328 21.664C38.0399 22.529 39.5126 23.2877 41.0381 23.9335C42.59 24.6122 44.1953 25.1681 45.8383 25.596Z"
                                                  fill="white" stroke="#1EA6E3"/>
                                            <path d="M43.9416 26.8798L43.9416 26.8799L43.9478 26.8814L44 26.8948V31.3082C44 34.9778 42.1688 37.5066 40.2987 39.1357C39.3628 39.9511 38.4227 40.5352 37.712 40.9151C37.3571 41.1048 37.0613 41.2425 36.8544 41.3319C36.7508 41.3767 36.6706 41.4088 36.6175 41.429C36.6158 41.4297 36.6141 41.4303 36.6124 41.4309H36.608L36.5268 41.4598L36.5 41.4693L36.478 41.4615C36.3382 41.4081 34.5156 40.6982 32.703 39.1224C30.8321 37.4959 29 34.9744 29 31.3082V26.8948L29.0522 26.8814L29.0522 26.8815L29.0575 26.8801C30.3794 26.5273 31.671 26.068 32.9198 25.5068C34.1456 24.9709 35.3289 24.3413 36.4594 23.6236L36.4594 23.6237L36.4648 23.6202L36.5064 23.593L36.5481 23.619C37.678 24.3362 38.8605 24.9653 40.0855 25.5009C41.3322 26.0637 42.6217 26.5249 43.9416 26.8798Z"
                                                  fill="white" stroke="#1EA6E3"/>
                                        </svg>