<svg width="49" height="49" viewBox="0 0 49 49" fill="none"
                                             class="glass-edge-processing"
                                             xmlns="http://www.w3.org/2000/svg">
                                            <rect x="3.5" y="6.5" width="42" height="6" rx="3" stroke="#1EA6E3"/>

                                            <mask id="path-3-inside-1_48:4318" fill="white">
                                                <path fill-rule="evenodd" clip-rule="evenodd"
                                                      d="M41.9656 19.0072C44.2156 19.1373 46 21.0031 46 23.2857C46 23.6802 45.6802 24 45.2857 24H3.71429C3.3198 24 3 23.6802 3 23.2857C3 21.0031 4.78445 19.1373 7.03442 19.0072C7.27391 17.3076 8.73425 16 10.5 16H38.5C40.2657 16 41.7261 17.3076 41.9656 19.0072Z"/>
                                            </mask>
                                            <path d="M41.9656 19.0072L40.9754 19.1468L41.0897 19.9583L41.9079 20.0056L41.9656 19.0072ZM7.03442 19.0072L7.09214 20.0056L7.91029 19.9583L8.02463 19.1468L7.03442 19.0072ZM41.9079 20.0056C43.6319 20.1053 45 21.5361 45 23.2857H47C47 20.4702 44.7992 18.1694 42.0233 18.0089L41.9079 20.0056ZM45 23.2857C45 23.1279 45.1279 23 45.2857 23V25C46.2325 25 47 24.2325 47 23.2857H45ZM45.2857 23H3.71429V25H45.2857V23ZM3.71429 23C3.87208 23 4 23.1279 4 23.2857H2C2 24.2325 2.76752 25 3.71429 25V23ZM4 23.2857C4 21.5361 5.36806 20.1053 7.09214 20.0056L6.97669 18.0089C4.20083 18.1694 2 20.4702 2 23.2857H4ZM8.02463 19.1468C8.19557 17.9337 9.2396 17 10.5 17V15C8.22891 15 6.35225 16.6815 6.0442 18.8677L8.02463 19.1468ZM10.5 17H38.5V15H10.5V17ZM38.5 17C39.7604 17 40.8044 17.9337 40.9754 19.1468L42.9558 18.8677C42.6478 16.6815 40.7711 15 38.5 15V17Z"
                                                  fill="#1EA6E3" mask="url(#path-3-inside-1_48:4318)"/>
                                            <mask id="path-5-inside-2_48:4318" fill="white">
                                                <path fill-rule="evenodd" clip-rule="evenodd"
                                                      d="M12 27C10.8954 27 10 27.8954 10 29H9.1875C8.08548 29 7.17379 29.8149 7.02215 30.875H5.67857C4.19924 30.875 3 32.0742 3 33.5536C3 33.8001 3.19988 34 3.44643 34H45.5536C45.8001 34 46 33.8001 46 33.5536C46 32.0742 44.8008 30.875 43.3214 30.875H41.9778C41.8262 29.8149 40.9145 29 39.8125 29H39C39 27.8954 38.1046 27 37 27H12Z"/>
                                            </mask>
                                            <path d="M10 29V30H11V29H10ZM7.02215 30.875V31.875H7.88929L8.01208 31.0166L7.02215 30.875ZM41.9778 30.875L40.9879 31.0166L41.1107 31.875H41.9778V30.875ZM39 29H38V30H39V29ZM11 29C11 28.4477 11.4477 28 12 28V26C10.3431 26 9 27.3431 9 29H11ZM9.1875 30H10V28H9.1875V30ZM8.01208 31.0166C8.09426 30.4421 8.59012 30 9.1875 30V28C7.58084 28 6.25332 29.1878 6.03223 30.7334L8.01208 31.0166ZM5.67857 31.875H7.02215V29.875H5.67857V31.875ZM4 33.5536C4 32.6265 4.75152 31.875 5.67857 31.875V29.875C3.64695 29.875 2 31.522 2 33.5536H4ZM3.44643 33C3.75215 33 4 33.2478 4 33.5536H2C2 34.3524 2.6476 35 3.44643 35V33ZM45.5536 33H3.44643V35H45.5536V33ZM45 33.5536C45 33.2478 45.2478 33 45.5536 33V35C46.3524 35 47 34.3524 47 33.5536H45ZM43.3214 31.875C44.2485 31.875 45 32.6265 45 33.5536H47C47 31.522 45.353 29.875 43.3214 29.875V31.875ZM41.9778 31.875H43.3214V29.875H41.9778V31.875ZM39.8125 30C40.4099 30 40.9057 30.4421 40.9879 31.0166L42.9678 30.7334C42.7467 29.1878 41.4192 28 39.8125 28V30ZM39 30H39.8125V28H39V30ZM37 28C37.5523 28 38 28.4477 38 29H40C40 27.3431 38.6569 26 37 26V28ZM12 28H37V26H12V28Z"
                                                  fill="#1EA6E3" mask="url(#path-5-inside-2_48:4318)"/>
                                            <path d="M3.5 39.2071L5.20711 37.5H43.7929L45.5 39.2071V41.7929L43.7929 43.5H5.20711L3.5 41.7929V39.2071Z"
                                                  stroke="#1EA6E3"/>
                                        </svg>