<svg width="49" height="49" viewBox="0 0 49 49" fill="none"
                                             xmlns="http://www.w3.org/2000/svg">
                                            <path d="M40 6C40 8.76142 33.2843 11 25 11C16.7157 11 10 8.76142 10 6"
                                                  stroke="#1EA6E3"/>
                                            <path d="M39 4C39 6.76142 32.732 9 25 9C17.268 9 11 6.76142 11 4"
                                                  stroke="#1EA6E3"/>
                                            <path d="M40 36.0588C40 38.7878 33.2843 41 25 41C16.7157 41 10 38.7878 10 36.0588V6"
                                                  stroke="#1EA6E3"/>
                                            <path d="M40 7L40 36" stroke="#1EA6E3" stroke-linecap="round"
                                                  stroke-linejoin="round"/>
                                            <path d="M10 23C10.3429 22.6857 20.1429 15.5357 25 12" stroke="#1EA6E3"
                                                  stroke-linecap="round" stroke-linejoin="round"/>
                                            <path d="M13 24C13.3429 23.6571 23.1429 15.8571 28 12" stroke="#1EA6E3"
                                                  stroke-linecap="round" stroke-linejoin="round"/>
                                        </svg>