<svg width="49" height="49" viewBox="0 0 49 49" fill="none"
                                             xmlns="http://www.w3.org/2000/svg">
                                            <path d="M24.5 4.5V45" stroke="#1EA6E3" stroke-linecap="round"
                                                  stroke-linejoin="round"/>
                                            <rect x="8.5" y="42.5" width="16" height="3" stroke="#1EA6E3"/>
                                            <rect x="24.5" y="21.5" width="16" height="3" stroke="#1EA6E3"/>
                                            <rect x="11.5" y="39.5" width="13" height="3" stroke="#1EA6E3"/>
                                            <rect x="11.5" y="3.5" width="13" height="3" stroke="#1EA6E3"/>
                                            <rect x="14.5" y="36.5" width="10" height="3" stroke="#1EA6E3"/>
                                            <rect x="14.5" y="6.5" width="10" height="3" stroke="#1EA6E3"/>
                                            <rect x="17.5" y="33.5" width="11" height="3" stroke="#1EA6E3"/>
                                            <rect x="17.5" y="9.5" width="11" height="3" stroke="#1EA6E3"/>
                                            <rect x="20.5" y="30.5" width="11" height="3" stroke="#1EA6E3"/>
                                            <rect x="20.5" y="12.5" width="11" height="3" stroke="#1EA6E3"/>
                                            <rect x="24.5" y="27.5" width="10" height="3" stroke="#1EA6E3"/>
                                            <rect x="24.5" y="15.5" width="10" height="3" stroke="#1EA6E3"/>
                                            <rect x="24.5" y="24.5" width="13" height="3" stroke="#1EA6E3"/>
                                            <rect x="24.5" y="18.5" width="13" height="3" stroke="#1EA6E3"/>
                                        </svg>