<svg width="49" height="49" viewBox="0 0 49 49" fill="none"
                                             xmlns="http://www.w3.org/2000/svg">
                                            <path d="M39.5416 18.375L40.0499 21.5916L42.9749 23.0833L41.4999 26L42.9833 28.9166L40.0333 30.4083L39.5249 33.625L36.2833 33.1166L33.9749 35.4166L31.6583 33.0833L28.4416 33.6166L27.9249 30.375L25.0166 28.8916L26.4999 25.975L25.0249 23.0833L27.9499 21.575L28.4583 18.3833L31.6833 18.9166L33.9999 16.575L36.3083 18.8833L39.5416 18.375ZM31.9166 21.8333C31.5851 21.8333 31.2671 21.965 31.0327 22.1994C30.7983 22.4338 30.6666 22.7518 30.6666 23.0833C30.6666 23.4148 30.7983 23.7327 31.0327 23.9672C31.2671 24.2016 31.5851 24.3333 31.9166 24.3333C32.2481 24.3333 32.5661 24.2016 32.8005 23.9672C33.0349 23.7327 33.1666 23.4148 33.1666 23.0833C33.1666 22.7518 33.0349 22.4338 32.8005 22.1994C32.5661 21.965 32.2481 21.8333 31.9166 21.8333ZM36.0833 27.6666C35.7517 27.6666 35.4338 27.7983 35.1994 28.0327C34.965 28.2672 34.8333 28.5851 34.8333 28.9166C34.8333 29.2481 34.965 29.5661 35.1994 29.8005C35.4338 30.0349 35.7517 30.1666 36.0833 30.1666C36.4148 30.1666 36.7327 30.0349 36.9672 29.8005C37.2016 29.5661 37.3333 29.2481 37.3333 28.9166C37.3333 28.5851 37.2016 28.2672 36.9672 28.0327C36.7327 27.7983 36.4148 27.6666 36.0833 27.6666ZM31.0083 30.1666L38.1666 23.0083L36.9916 21.8333L29.8333 28.9916L31.0083 30.1666Z"
                                                  fill="#1EA6E3"/>
                                            <rect x="3.5" y="5.5" width="42" height="38" stroke="#1EA6E3"/>
                                            <path d="M9 43.5V20.5H22V43.5" stroke="#1EA6E3" stroke-linecap="round"
                                                  stroke-linejoin="round"/>
                                            <path d="M3.5 20.5L18.5 5.5" stroke="#1EA6E3" stroke-linecap="round"
                                                  stroke-linejoin="round"/>
                                            <path d="M10 18L22 6" stroke="#1EA6E3" stroke-linecap="round"
                                                  stroke-linejoin="round"/>
                                        </svg>