<svg width="50" height="50" viewBox="0 0 50 50" fill="none"
                                             class="entrance-groups"
                                             xmlns="http://www.w3.org/2000/svg">
                                            <mask id="path-1-inside-1_136:162" fill="white">
                                                <path d="M30.5776 26.3188C34.864 28.6761 38.5688 27.6876 41.6911 24.5648L44.8975 21.3555C47.7157 18.5408 47.0798 15.2859 45.4217 11.3076L41.7129 15.0189C39.9569 16.7744 37.9571 17.623 35.8738 15.5352L35.7605 15.4264C33.6767 13.341 34.5228 11.3413 36.2793 9.58527L39.9895 5.875C36.0162 4.21791 32.7604 3.58395 29.9461 6.39917L26.7343 9.60802C23.615 12.7279 22.2393 16.6468 24.5946 20.9347C24.1822 21.0885 23.7989 21.314 23.4785 21.6349L8.41634 36.695C7.00107 38.1108 7.22013 40.6264 8.90393 42.3077L8.98947 42.3937C10.6767 44.0785 13.1814 44.2971 14.6036 42.8759L24.6831 32.7954"/>
                                            </mask>
                                            <path d="M41.6911 24.5648L42.3983 25.2719L42.3986 25.2716L41.6911 24.5648ZM44.8975 21.3555L44.1908 20.6479L44.1901 20.6487L44.8975 21.3555ZM45.4217 11.3076L46.3447 10.9229L45.7701 9.54427L44.7143 10.6008L45.4217 11.3076ZM41.7129 15.0189L42.4199 15.7261L42.4202 15.7258L41.7129 15.0189ZM35.8738 15.5352L36.5816 14.8288L36.5742 14.8213L36.5666 14.814L35.8738 15.5352ZM35.7605 15.4264L35.0532 16.1332L35.0604 16.1404L35.0677 16.1475L35.7605 15.4264ZM36.2793 9.58527L36.9863 10.2925L36.9864 10.2924L36.2793 9.58527ZM39.9895 5.875L40.6966 6.5821L41.7521 5.52661L40.3744 4.95205L39.9895 5.875ZM29.9461 6.39917L30.6529 7.10661L30.6534 7.10615L29.9461 6.39917ZM26.7343 9.60802L26.0275 8.90058L26.0271 8.90097L26.7343 9.60802ZM24.5946 20.9347L24.944 21.8716L26.0281 21.4674L25.4711 20.4532L24.5946 20.9347ZM23.4785 21.6349L24.1855 22.342L24.1861 22.3414L23.4785 21.6349ZM8.41634 36.695L7.70928 35.9879L7.70911 35.9881L8.41634 36.695ZM8.90393 42.3077L9.61308 41.6026L9.61051 41.6001L8.90393 42.3077ZM8.98947 42.3937L8.28032 43.0988L8.28289 43.1014L8.98947 42.3937ZM14.6036 42.8759L15.3105 43.5832L15.3107 43.5829L14.6036 42.8759ZM30.0957 27.1951C32.405 28.4651 34.636 28.872 36.7529 28.4802C38.8571 28.0907 40.7376 26.9328 42.3983 25.2719L40.984 23.8578C39.5223 25.3196 37.9892 26.2174 36.3889 26.5136C34.8012 26.8074 33.0366 26.5299 31.0595 25.4426L30.0957 27.1951ZM42.3986 25.2716L45.6049 22.0623L44.1901 20.6487L40.9837 23.8581L42.3986 25.2716ZM45.6042 22.063C47.2052 20.4639 47.8543 18.6877 47.8382 16.7595C47.8225 14.8933 47.1835 12.9354 46.3447 10.9229L44.4986 11.6923C45.318 13.6582 45.826 15.3168 45.8382 16.7763C45.85 18.1738 45.4079 19.4323 44.1908 20.6479L45.6042 22.063ZM44.7143 10.6008L41.0055 14.312L42.4202 15.7258L46.129 12.0145L44.7143 10.6008ZM41.0059 14.3117C40.181 15.1363 39.4226 15.615 38.7446 15.7331C38.1496 15.8367 37.443 15.692 36.5816 14.8288L35.1659 16.2415C36.3879 17.4661 37.7229 17.9411 39.0876 17.7034C40.3693 17.4803 41.4887 16.657 42.4199 15.7261L41.0059 14.3117ZM36.5666 14.814L36.4533 14.7052L35.0677 16.1475L35.181 16.2563L36.5666 14.814ZM36.4679 14.7195C35.6061 13.8571 35.4612 13.1497 35.565 12.5538C35.683 11.8755 36.1615 11.117 36.9863 10.2925L35.5723 8.87806C34.6405 9.80952 33.8177 10.9289 33.5946 12.2108C33.3571 13.5752 33.8311 14.9103 35.0532 16.1332L36.4679 14.7195ZM36.9864 10.2924L40.6966 6.5821L39.2824 5.16789L35.5722 8.87816L36.9864 10.2924ZM40.3744 4.95205C38.3641 4.11362 36.4072 3.4754 34.5414 3.46C32.614 3.44409 30.8378 4.09276 29.2389 5.69219L30.6534 7.10615C31.8687 5.89036 33.1275 5.4484 34.5249 5.45993C35.984 5.47198 37.6416 5.97928 39.6046 6.79795L40.3744 4.95205ZM29.2393 5.69174L26.0275 8.90058L27.4411 10.3155L30.6529 7.10661L29.2393 5.69174ZM26.0271 8.90097C24.3772 10.5512 23.1302 12.4697 22.637 14.6086C22.1387 16.7697 22.4303 19.0716 23.7181 21.4161L25.4711 20.4532C24.4036 18.5098 24.2053 16.7083 24.5859 15.058C24.9715 13.3856 25.9721 11.7847 27.4415 10.3151L26.0271 8.90097ZM24.2452 19.9977C23.7227 20.1925 23.2098 20.4887 22.7708 20.9283L24.1861 22.3414C24.3881 22.1392 24.6416 21.9844 24.944 21.8716L24.2452 19.9977ZM22.7714 20.9277L7.70928 35.9879L9.1234 37.4022L24.1855 22.342L22.7714 20.9277ZM7.70911 35.9881C5.79329 37.9046 6.24254 41.0634 8.19734 43.0153L9.61051 41.6001C8.19773 40.1894 8.20884 38.3171 9.12357 37.402L7.70911 35.9881ZM8.19478 43.0127L8.28032 43.0988L9.69863 41.6887L9.61308 41.6026L8.19478 43.0127ZM8.28289 43.1014C10.2408 45.0564 13.388 45.5044 15.3105 43.5832L13.8967 42.1685C12.9748 43.0898 11.1127 43.1007 9.69606 41.6861L8.28289 43.1014ZM15.3107 43.5829L25.3902 33.5025L23.976 32.0883L13.8965 42.1688L15.3107 43.5829Z"
                                                  fill="#1EA6E3" mask="url(#path-1-inside-1_136:162)"/>
                                            <mask id="path-3-inside-2_136:162" fill="white">
                                                <path fill-rule="evenodd" clip-rule="evenodd"
                                                      d="M11.3456 16.0375L9.88393 17.5L4.5 9.30847L7.30492 6.5L15.5 11.8806L14.0362 13.3453L26.6172 25.9258L28.203 24.3403C28.6095 24.4951 28.9942 24.7167 29.3132 25.0401L42.0581 37.958C43.4719 39.3753 43.2568 41.8874 41.571 43.5662L41.4854 43.6577C39.8026 45.3415 37.2915 45.5561 35.8763 44.1398L23.1304 31.2238C22.8099 30.9014 22.5835 30.5217 22.4297 30.1122L23.9254 28.6168L11.3456 16.0375Z"/>
                                            </mask>
                                            <path fill-rule="evenodd" clip-rule="evenodd"
                                                  d="M11.3456 16.0375L9.88393 17.5L4.5 9.30847L7.30492 6.5L15.5 11.8806L14.0362 13.3453L26.6172 25.9258L28.203 24.3403C28.6095 24.4951 28.9942 24.7167 29.3132 25.0401L42.0581 37.958C43.4719 39.3753 43.2568 41.8874 41.571 43.5662L41.4854 43.6577C39.8026 45.3415 37.2915 45.5561 35.8763 44.1398L23.1304 31.2238C22.8099 30.9014 22.5835 30.5217 22.4297 30.1122L23.9254 28.6168L11.3456 16.0375Z"
                                                  fill="none"/>
                                            <path d="M9.88393 17.5L9.04827 18.0492L9.72293 19.0757L10.5913 18.2069L9.88393 17.5ZM11.3456 16.0375L12.0526 15.3304L11.3453 14.6231L10.6382 15.3306L11.3456 16.0375ZM4.5 9.30847L3.79245 8.60181L3.21735 9.17763L3.66434 9.85771L4.5 9.30847ZM7.30492 6.5L7.85376 5.66407L7.17292 5.21706L6.59737 5.79334L7.30492 6.5ZM15.5 11.8806L16.2073 12.5875L17.0755 11.7187L16.0488 11.0446L15.5 11.8806ZM14.0362 13.3453L13.3288 12.6384L12.6222 13.3455L13.3291 14.0524L14.0362 13.3453ZM26.6172 25.9258L25.9101 26.6329L26.6171 27.3399L27.3242 26.633L26.6172 25.9258ZM28.203 24.3403L28.5589 23.4058L27.9538 23.1754L27.496 23.6331L28.203 24.3403ZM29.3132 25.0401L28.6012 25.7423L28.6013 25.7424L29.3132 25.0401ZM42.0581 37.958L41.3462 38.6604L41.3501 38.6643L42.0581 37.958ZM41.571 43.5662L40.8653 42.8577L40.8527 42.8702L40.8406 42.8832L41.571 43.5662ZM41.4854 43.6577L42.1928 44.3646L42.2045 44.3528L42.2159 44.3407L41.4854 43.6577ZM35.8763 44.1398L35.1645 44.8423L35.1689 44.8467L35.8763 44.1398ZM23.1304 31.2238L23.8422 30.5214L23.8397 30.5189L23.1304 31.2238ZM22.4297 30.1122L21.7227 29.405L21.267 29.8606L21.4935 30.4638L22.4297 30.1122ZM23.9254 28.6168L24.6324 29.324L25.3397 28.6169L24.6325 27.9097L23.9254 28.6168ZM10.5913 18.2069L12.0529 16.7444L10.6382 15.3306L9.17661 16.7931L10.5913 18.2069ZM3.66434 9.85771L9.04827 18.0492L10.7196 16.9508L5.33566 8.75923L3.66434 9.85771ZM6.59737 5.79334L3.79245 8.60181L5.20755 10.0151L8.01248 7.20666L6.59737 5.79334ZM16.0488 11.0446L7.85376 5.66407L6.75608 7.33593L14.9512 12.7165L16.0488 11.0446ZM14.7435 14.0522L16.2073 12.5875L14.7927 11.1737L13.3288 12.6384L14.7435 14.0522ZM13.3291 14.0524L25.9101 26.6329L27.3243 25.2186L14.7433 12.6382L13.3291 14.0524ZM27.3242 26.633L28.91 25.0475L27.496 23.6331L25.9102 25.2186L27.3242 26.633ZM27.8472 25.2749C28.1545 25.3919 28.4062 25.5445 28.6012 25.7423L30.0252 24.3379C29.5823 23.8888 29.0645 23.5983 28.5589 23.4058L27.8472 25.2749ZM28.6013 25.7424L41.3462 38.6603L42.7699 37.2557L30.025 24.3377L28.6013 25.7424ZM41.3501 38.6643C42.2658 39.5822 42.2773 41.4515 40.8653 42.8577L42.2766 44.2748C44.2362 42.3232 44.678 39.1684 42.766 37.2518L41.3501 38.6643ZM40.8406 42.8832L40.755 42.9747L42.2159 44.3407L42.3014 44.2492L40.8406 42.8832ZM40.7781 42.9508C39.367 44.3628 37.4992 44.3492 36.5836 43.433L35.1689 44.8467C37.0839 46.763 40.2383 46.3202 42.1928 44.3646L40.7781 42.9508ZM36.588 43.4374L23.8422 30.5214L22.4186 31.9263L35.1645 44.8422L36.588 43.4374ZM23.8397 30.5189C23.6326 30.3105 23.4771 30.0568 23.3658 29.7606L21.4935 30.4638C21.6898 30.9865 21.9873 31.4923 22.4211 31.9288L23.8397 30.5189ZM23.1367 30.8194L24.6324 29.324L23.2184 27.9096L21.7227 29.405L23.1367 30.8194ZM24.6325 27.9097L12.0526 15.3304L10.6385 16.7446L23.2183 29.324L24.6325 27.9097Z"
                                                  fill="#1EA6E3" mask="url(#path-3-inside-2_136:162)"/>
                                        </svg>