<svg width="50" height="49" viewBox="0 0 50 49" fill="none"
                                             xmlns="http://www.w3.org/2000/svg">
                                            <path d="M26.0073 41.4923C26.0025 41.6581 26.0001 41.8249 26 41.9927C29.9507 41.8768 33.3257 40.3793 36.125 37.5C38.9276 34.6174 40.3837 31.1412 40.4933 27.0714C40.3254 27.0715 40.1586 27.0741 39.9929 27.0792M26.0073 41.4923C29.8181 41.3754 33.0627 39.9325 35.7665 37.1515C38.4744 34.3662 39.8821 31.0175 39.9929 27.0792M26.0073 41.4923C26.1194 37.6064 27.5261 34.2698 30.235 31.4585C32.9392 28.6523 36.1834 27.1971 39.9929 27.0792M26.0073 41.4923C26.0026 41.4924 25.9978 41.4926 25.9931 41.4927C25.9703 40.6544 25.8905 39.8391 25.7538 39.0469C26.2871 36.0545 27.6608 33.4094 29.875 31.1116C32.6743 28.2066 36.0493 26.6957 40 26.5788C39.9999 26.7466 39.9976 26.9135 39.9929 27.0792M20.765 31.4585C23.4739 34.2698 24.8806 37.6064 24.9927 41.4923C21.1819 41.3754 17.9373 39.9325 15.2335 37.1515C12.5256 34.3662 11.1179 31.0175 11.0071 27.0792C14.8166 27.1971 18.0608 28.6523 20.765 31.4585ZM17.4294 18.507L18.3721 18.0691L17.4415 17.6059C16.701 17.2374 16.172 16.7721 15.8258 16.2207C15.4799 15.6699 15.2969 15.002 15.2969 14.1964C15.2969 13.1501 15.6613 12.2567 16.4054 11.4914C17.1491 10.7264 18.0113 10.3571 19.0156 10.3571C19.7915 10.3571 20.4628 10.5889 21.0491 11.0528L21.8594 11.6939V10.6607V10.3393C21.8594 9.28801 22.2145 8.39281 22.9343 7.62852C23.65 6.86857 24.4962 6.5 25.5 6.5C26.5038 6.5 27.35 6.86857 28.0657 7.62852C28.7855 8.39281 29.1406 9.28801 29.1406 10.3393V10.6607V11.6485L29.9367 11.0637C30.5878 10.5853 31.2668 10.3571 31.9844 10.3571C32.9887 10.3571 33.8509 10.7264 34.5946 11.4914C35.3387 12.2567 35.7031 13.1501 35.7031 14.1964C35.7031 15.002 35.5201 15.6699 35.1742 16.2207C34.828 16.7721 34.299 17.2374 33.5585 17.6059L32.6279 18.0691L33.5706 18.507C34.3057 18.8485 34.8302 19.2984 35.1742 19.8462C35.5186 20.3948 35.7031 21.0751 35.7031 21.9107C35.7031 22.9566 35.3392 23.8336 34.6002 24.5699C33.8578 25.3097 32.994 25.6696 31.9844 25.6696C31.1957 25.6696 30.5174 25.4569 29.9307 25.0391L29.1406 24.4766V25.4464V25.7679C29.1406 26.8188 28.786 27.6975 28.0712 28.4327C27.3569 29.1674 26.5092 29.5268 25.5 29.5268C24.4908 29.5268 23.6431 29.1674 22.9288 28.4327C22.214 27.6975 21.8594 26.8188 21.8594 25.7679V25.4464V24.5164L21.0836 25.0294C20.432 25.4602 19.7459 25.6696 19.0156 25.6696C18.006 25.6696 17.1422 25.3097 16.3998 24.5699C15.6608 23.8336 15.2969 22.9566 15.2969 21.9107C15.2969 21.0751 15.4814 20.3948 15.8258 19.8462C16.1698 19.2984 16.6942 18.8485 17.4294 18.507ZM25.5 13.2143C24.2121 13.2143 23.1052 13.7029 22.2063 14.6572C21.3116 15.6072 20.8594 16.7477 20.8594 18.0536C20.8594 19.3597 21.312 20.49 22.2118 21.4155C23.1121 22.3415 24.2175 22.8125 25.5 22.8125C26.7825 22.8125 27.8879 22.3415 28.7882 21.4155C29.688 20.49 30.1406 19.3597 30.1406 18.0536C30.1406 16.7477 29.6884 15.6072 28.7937 14.6572C27.8948 13.7029 26.7879 13.2143 25.5 13.2143Z"
                                                  stroke="#1EA6E3"/>
                                        </svg>