<svg class="double-glazed-windows" width="49" height="49" viewBox="0 0 49 49" fill="none" xmlns="http://www.w3.org/2000/svg">
<rect x="4.5" y="4.5" width="20" height="41" stroke="#1EA6E3"/>
<rect x="24.5" y="4.5" width="20" height="41" stroke="#1EA6E3"/>
<path d="M5 26.5L22 9" stroke="#1EA6E3" stroke-linecap="round" stroke-linejoin="round"/>
<path d="M5 31.5L22 14" stroke="#1EA6E3" stroke-linecap="round" stroke-linejoin="round"/>
<path d="M27 39.5L44 22" stroke="#1EA6E3" stroke-linecap="round" stroke-linejoin="round"/>
<path d="M47.4416 21.8798L47.4416 21.8799L47.4478 21.8814L47.5 21.8948V26.3082C47.5 29.9778 45.6688 32.5066 43.7987 34.1357C42.8628 34.9511 41.9227 35.5352 41.212 35.9151C40.8571 36.1048 40.5613 36.2425 40.3544 36.3319C40.2508 36.3767 40.1706 36.4088 40.1175 36.429C40.1158 36.4297 40.1141 36.4303 40.1124 36.4309H40.108L40.0268 36.4598L40 36.4693L39.978 36.4615C39.8382 36.4081 38.0156 35.6982 36.203 34.1224C34.3321 32.4959 32.5 29.9744 32.5 26.3082V21.8948L32.5522 21.8814L32.5522 21.8815L32.5575 21.8801C33.8794 21.5273 35.171 21.068 36.4198 20.5068C37.6456 19.9709 38.8289 19.3413 39.9594 18.6236L39.9594 18.6237L39.9648 18.6202L40.0064 18.593L40.0481 18.619C41.178 19.3362 42.3605 19.9653 43.5855 20.5009C44.8322 21.0637 46.1217 21.5249 47.4416 21.8798Z" fill="white" stroke="#1EA6E3"/>
</svg>
