<svg class="glass-floor" width="50" height="49" viewBox="0 0 50 49" fill="none" xmlns="http://www.w3.org/2000/svg">
<rect x="8" y="7.5" width="17" height="17" stroke="#1EA6E3"/>
<rect x="8" y="24.5" width="17" height="17" stroke="#1EA6E3"/>
<rect x="25" y="7.5" width="17" height="17" stroke="#1EA6E3"/>
<rect x="25" y="24.5" width="17" height="17" stroke="#1EA6E3"/>
<path d="M17 30.3258H22.5V31.5758C22.5 32.3051 22.2103 33.0046 21.6945 33.5203C21.1788 34.036 20.4793 34.3258 19.75 34.3258C19.0207 34.3258 18.3212 34.036 17.8055 33.5203C17.2897 33.0046 17 32.3051 17 31.5758V30.3258ZM21 18.4458C23 18.4458 24 21.3258 24 23.3258C24 24.3258 23.5 25.3258 23 26.8258L22.5 28.3258H17C17 27.3258 16.5 25.8258 16.5 23.3258C16.5 20.8258 18.498 18.4458 21 18.4458ZM33.054 26.4238L32.837 27.6548C32.7104 28.3731 32.3035 29.0117 31.7061 29.4301C31.1086 29.8485 30.3693 30.0124 29.651 29.8858C28.9327 29.7591 28.2941 29.3523 27.8757 28.7548C27.4573 28.1573 27.2934 27.4181 27.42 26.6998L27.638 25.4698L33.054 26.4238ZM31.178 14.0308C33.642 14.4648 35.196 17.1548 34.762 19.6168C34.328 22.0798 33.575 23.4698 33.402 24.4548L27.985 23.4998L27.753 21.9358C27.521 20.3718 27.203 19.2998 27.376 18.3158C27.723 16.3458 29.208 13.6838 31.178 14.0308Z" fill="#1EA6E3"/>
</svg>
