<svg width="49" height="49" viewBox="0 0 49 49" fill="none" xmlns="http://www.w3.org/2000/svg">
<path d="M17.5 14.5C21 10 20.3333 6.5 20 4.5C32 11 30.5 21.5 31.5 21.5C33.5 21.5 34.3333 17.8333 34.5 16C37.5 17.5 41.5 22.5 41.5 28.5C41.5 39.5 32 44.5 23.5 44.5C15 44.5 8.5 37 8.5 28.5C8.5 20 15.3294 17.2908 17.5 14.5Z" stroke="#1EA6E3"/>
<path d="M20.1818 25.5C22.197 23.025 21.8131 21.1 21.6212 20C28.5303 23.575 27.6667 29.35 28.2424 29.35C29.3939 29.35 29.8737 27.3333 29.9697 26.325C31.697 27.15 34 29.9 34 33.2C34 39.25 28.5303 42 23.6364 42C18.7424 42 15 37.875 15 33.2C15 28.525 18.9321 27.0349 20.1818 25.5Z" stroke="#1EA6E3"/>
</svg>
