<svg width="50" height="50" viewBox="0 0 50 50" fill="none"
                                             xmlns="http://www.w3.org/2000/svg">
                                            <path d="M31.1903 12.8364L33.0923 14.7384L19.3966 28.434L17.4952 26.5326C17.4951 26.5325 17.495 26.5324 17.4949 26.5323C16.0353 25.0689 15.0811 23.1777 14.7714 21.1341C14.4603 19.0816 14.6696 17.2663 15.7731 15.1716C16.0169 14.7088 16.4232 14.1476 16.7831 13.6876C16.9604 13.461 17.1216 13.2649 17.2385 13.1256C17.2968 13.0561 17.3439 13.0009 17.3762 12.9633L17.4131 12.9207L17.4177 12.9154L17.4189 12.9142L17.4423 12.8899C17.4615 12.8702 17.4819 12.8493 17.4943 12.837L17.4948 12.8364C18.3941 11.9372 19.4616 11.2238 20.6366 10.7372C21.8115 10.2505 23.0708 10 24.3426 10C25.6143 10 26.8736 10.2505 28.0486 10.7372C29.2235 11.2238 30.2911 11.9372 31.1903 12.8364Z"
                                                  stroke="#1EA6E3"/>
                                            <path d="M17.6489 30.2326L34.6378 13.2437" stroke="#1EA6E3"
                                                  stroke-linecap="round" stroke-linejoin="round"/>
                                            <path d="M6.5 42.9743V17.4909C6.5 13.6792 9.59001 10.5892 13.4017 10.5892C15.0788 10.5892 16.6161 11.1873 17.812 12.1819"
                                                  stroke="#1EA6E3"/>
                                            <circle cx="25.6126" cy="29.7016" r="1.06181" fill="#1EA6E3"/>
                                            <circle cx="26.6744" cy="35.0107" r="1.06181" fill="#1EA6E3"/>
                                            <circle cx="33.0452" cy="37.1343" r="1.06181" fill="#1EA6E3"/>
                                            <circle cx="28.7979" cy="41.3815" r="1.06181" fill="#1EA6E3"/>
                                            <circle cx="29.8597" cy="25.4544" r="1.06181" fill="#1EA6E3"/>
                                            <circle cx="30.9214" cy="30.7635" r="1.06181" fill="#1EA6E3"/>
                                            <circle cx="37.2923" cy="32.8871" r="1.06181" fill="#1EA6E3"/>
                                            <circle cx="34.107" cy="21.2072" r="1.06181" fill="#1EA6E3"/>
                                            <circle cx="35.1687" cy="26.5163" r="1.06181" fill="#1EA6E3"/>
                                            <circle cx="41.5396" cy="28.6399" r="1.06181" fill="#1EA6E3"/>
                                            <circle cx="39.4161" cy="22.269" r="1.06181" fill="#1EA6E3"/>
                                            <circle cx="45.7869" cy="24.3926" r="1.06181" fill="#1EA6E3"/>
                                        </svg>