<svg width="49" height="50" viewBox="0 0 49 50" fill="none"
                                             xmlns="http://www.w3.org/2000/svg">
                                            <path d="M25 32.5L10 19L25 5.5L40 19L25 32.5Z" stroke="#1EA6E3"
                                                  stroke-linecap="round" stroke-linejoin="round"/>
                                            <path d="M10 24.5L25 37.5L40 24.5" stroke="#1EA6E3" stroke-linecap="round"
                                                  stroke-linejoin="round"/>
                                            <path d="M10 29.5L25 42.5L40 29.5" stroke="#1EA6E3" stroke-linecap="round"
                                                  stroke-linejoin="round"/>
                                            <path d="M45.3383 26.096L45.3383 26.096L45.3443 26.0975L45.5 26.136V31.5573C45.5 36.0325 43.1925 39.1193 40.8365 41.1069C39.6581 42.1011 38.4747 42.8132 37.5798 43.2764C37.1328 43.5078 36.7597 43.6761 36.4978 43.7856C36.3668 43.8405 36.2647 43.8801 36.1962 43.9053C36.1849 43.9095 36.1748 43.9131 36.1658 43.9164H36.1592L36.0801 43.9436L36 43.9712L35.9247 43.9452C35.7682 43.8875 33.4605 43.0229 31.1658 41.0909C28.8087 39.1065 26.5 36.0285 26.5 31.5573V26.136L26.6557 26.0975L26.6557 26.0975L26.6608 26.0962C28.3062 25.671 29.914 25.1173 31.4687 24.4407C32.9949 23.7945 34.4684 23.0354 35.8762 22.1699L35.8762 22.1699L35.8815 22.1665L36.0062 22.0877L36.1328 22.164C37.5399 23.029 39.0126 23.7877 40.5381 24.4335C42.09 25.1122 43.6953 25.6681 45.3383 26.096Z"
                                                  fill="white" stroke="#1EA6E3"/>
                                            <path d="M43.4416 27.3798L43.4416 27.3799L43.4478 27.3814L43.5 27.3948V31.8082C43.5 35.4778 41.6688 38.0066 39.7987 39.6357C38.8628 40.4511 37.9227 41.0352 37.212 41.4151C36.8571 41.6048 36.5613 41.7425 36.3544 41.8319C36.2508 41.8767 36.1706 41.9088 36.1175 41.929C36.1158 41.9297 36.1141 41.9303 36.1124 41.9309H36.108L36.0268 41.9598L36 41.9693L35.978 41.9615C35.8382 41.9081 34.0156 41.1982 32.203 39.6224C30.3321 37.9959 28.5 35.4744 28.5 31.8082V27.3948L28.5522 27.3814L28.5522 27.3815L28.5575 27.3801C29.8794 27.0273 31.171 26.568 32.4198 26.0068C33.6456 25.4709 34.8289 24.8413 35.9594 24.1236L35.9594 24.1237L35.9648 24.1202L36.0064 24.093L36.0481 24.119C37.178 24.8362 38.3605 25.4653 39.5855 26.0009C40.8322 26.5637 42.1217 27.0249 43.4416 27.3798Z"
                                                  fill="white" stroke="#1EA6E3"/>
                                        </svg>