<svg width="166" height="166" viewBox="0 0 166 166" fill="none" xmlns="http://www.w3.org/2000/svg">
<path d="M143.886 82.943C143.886 49.2851 116.601 22 82.943 22C54.0824 22 29.9075 42.0614 23.6024 69M22 82.943C22 116.601 49.2851 143.886 82.943 143.886C111.763 143.886 135.91 123.881 142.257 97" stroke="#1EA6E3"/>
<path d="M35 94L22 83L9 94" stroke="#1EA6E3" stroke-linecap="round" stroke-linejoin="round"/>
<path d="M131 72L144 83L157 72" stroke="#1EA6E3" stroke-linecap="round" stroke-linejoin="round"/>
<path d="M121.679 121.047L121.771 120.487C122.015 119.011 122.141 117.504 122.141 116.007C122.141 114.508 122.015 112.994 121.771 111.527L121.678 110.966L122.113 110.599L127.437 106.102L121.679 121.047ZM121.679 121.047L122.113 121.414M121.679 121.047L122.113 121.414M122.113 121.414L127.434 125.909C127.435 125.91 127.435 125.91 127.435 125.91C127.945 126.345 128.124 127.03 127.913 127.633L127.912 127.634L127.843 127.832C127.843 127.834 127.842 127.836 127.841 127.838C126.409 131.769 124.298 135.387 121.545 138.601C121.544 138.602 121.543 138.603 121.542 138.604L121.4 138.768L121.396 138.773C121.186 139.018 120.905 139.195 120.589 139.28C120.272 139.364 119.937 139.352 119.628 139.244C119.628 139.244 119.628 139.244 119.627 139.244L113.018 136.919L112.491 136.733L112.057 137.085C109.698 138.997 107.074 140.495 104.229 141.552L103.698 141.749L103.594 142.305L102.316 149.137C102.257 149.45 102.103 149.739 101.873 149.966C101.642 150.193 101.345 150.347 101.022 150.405L101.018 150.406L100.803 150.445C100.802 150.445 100.801 150.445 100.8 150.446C96.6423 151.185 92.3841 151.185 88.2261 150.446C88.2253 150.445 88.2244 150.445 88.2236 150.445L88.0087 150.406L88.0049 150.405C87.6811 150.347 87.3845 150.193 87.1538 149.966C86.9233 149.739 86.7695 149.45 86.7109 149.137L85.863 149.296L86.7109 149.137L85.4245 142.273L85.32 141.715L84.7877 141.519C81.9717 140.48 79.364 138.975 77.0198 137.07L76.5854 136.717L76.0574 136.903L69.4014 139.243C69.4008 139.243 69.4002 139.243 69.3996 139.244C69.0903 139.351 68.755 139.363 68.4385 139.278C68.1214 139.193 67.8395 139.016 67.6291 138.771L67.6266 138.768L67.4824 138.602C67.482 138.602 67.4816 138.601 67.4811 138.601C64.7298 135.404 62.618 131.77 61.1853 127.837L61.114 127.634L61.1141 127.634L61.1096 127.622C61.0003 127.322 60.9859 126.997 61.0681 126.69C61.1504 126.382 61.3259 126.105 61.5734 125.895L66.9471 121.349L67.382 120.981L67.2873 120.419C67.0447 118.981 66.9267 117.491 66.9267 115.998C66.9267 114.522 67.0446 113.032 67.2876 111.576L67.3813 111.014L66.946 110.647L61.5594 106.104C61.5589 106.103 61.5584 106.103 61.5578 106.102C61.051 105.67 60.8722 104.983 61.0936 104.375L61.0937 104.375L61.0978 104.363L61.1691 104.159C62.5985 100.228 64.731 96.5825 67.4655 93.3956C67.4661 93.395 67.4666 93.3944 67.4672 93.3937L67.6103 93.2287L67.6103 93.2287L67.6145 93.2238C67.8239 92.9792 68.1051 92.8018 68.4216 92.7171C68.7381 92.6325 69.0733 92.645 69.3821 92.7528C69.3823 92.7529 69.3825 92.753 69.3827 92.753L76.0412 95.0941L76.5688 95.2796L77.003 94.9272C79.3322 93.0368 81.9577 91.5333 84.7765 90.4761L85.3043 90.2781L85.4082 89.724L86.6946 82.8599L86.6946 82.8598C86.7532 82.5471 86.907 82.2577 87.1376 82.0307C87.3682 81.8036 87.6649 81.6499 87.9886 81.5919L87.9924 81.5912L88.2081 81.5517C88.2088 81.5516 88.2094 81.5515 88.2101 81.5514C92.3263 80.8162 96.6675 80.8162 100.784 81.5514C100.784 81.5515 100.785 81.5516 100.786 81.5517L101.002 81.5912L101.005 81.5919C101.329 81.6499 101.626 81.8036 101.856 82.0307C102.087 82.2577 102.241 82.5471 102.299 82.8598L103.578 89.6915L103.682 90.2495L104.215 90.4459C107.057 91.4934 109.681 92.9992 112.04 94.9115L112.475 95.2634L113.002 95.078L119.609 92.7539C119.609 92.7537 119.61 92.7535 119.611 92.7532C119.92 92.6464 120.255 92.6344 120.572 92.7191C120.889 92.804 121.171 92.9813 121.381 93.2258L121.384 93.2287L121.528 93.3948C121.528 93.3954 121.529 93.3959 121.529 93.3965C124.268 96.5795 126.401 100.226 127.825 104.159C127.825 104.16 127.826 104.162 127.826 104.164L127.896 104.363L127.896 104.363M122.113 121.414L127.896 104.363M127.896 104.363L127.901 104.375M127.896 104.363L127.901 104.375M127.901 104.375C128.01 104.675 128.024 105 127.942 105.307C127.86 105.615 127.685 105.892 127.437 106.101L127.901 104.375ZM79.1996 115.202C79.1996 123.579 86.0662 130.349 94.5132 130.349C102.96 130.349 109.827 123.579 109.827 115.202C109.827 106.825 102.96 100.055 94.5132 100.055C86.0662 100.055 79.1996 106.825 79.1996 115.202Z" fill="white" stroke="#1EA6E3" stroke-width="2"/>
<g filter="url(#filter0_d_136:805)">
<circle cx="88.3113" cy="57.3113" r="40.511" fill="#1EA6E3"/>
</g>
<path d="M70.9495 37.0555L88.3113 57.311H107.843" stroke="white" stroke-width="2" stroke-linecap="round" stroke-linejoin="round"/>
<path d="M58.2309 71.5422C66.0904 88.1551 85.9293 95.2512 102.542 87.3917C119.155 79.5322 126.251 59.6933 118.392 43.0804C110.532 26.4674 90.6934 19.3714 74.0804 27.2309" stroke="white"/>
<circle cx="88.3114" cy="57.3112" r="3.34046" fill="#1EA6E3" stroke="white" stroke-width="2"/>
<path d="M60.1239 52.6755L60.0282 53.2438L60.472 53.6116L63.7875 56.3581C63.7878 56.3583 63.7881 56.3586 63.7884 56.3588C63.9856 56.524 64.0425 56.769 63.9689 56.9747L63.9687 56.9753L63.9252 57.097C63.0496 59.4531 61.7589 61.6226 60.0744 63.5513C60.0738 63.5519 60.0733 63.5525 60.0727 63.5531L59.9854 63.6518L59.9812 63.6567C59.9023 63.747 59.793 63.8161 59.6654 63.8496C59.5379 63.8831 59.4027 63.8781 59.2789 63.8359C59.2785 63.8358 59.2782 63.8357 59.2778 63.8355L55.1595 62.415L54.6408 62.236L54.2113 62.5774C52.7735 63.7201 51.1734 64.6163 49.4376 65.2483L48.9039 65.4426L48.7974 66.0005L48.0009 70.1753C48.0009 70.1754 48.0008 70.1755 48.0008 70.1756C47.98 70.2841 47.9249 70.3885 47.8372 70.4732C47.7491 70.5583 47.6324 70.6189 47.5011 70.6419L47.4974 70.6426L47.3652 70.6663C47.3643 70.6665 47.3635 70.6666 47.3626 70.6668C44.8135 71.1111 42.2029 71.1111 39.6538 70.6667C39.653 70.6666 39.6522 70.6665 39.6513 70.6663L39.5192 70.6426L39.5155 70.6419C39.3841 70.6189 39.2674 70.5583 39.1793 70.4732C39.0916 70.3885 39.0364 70.2839 39.0156 70.1753L38.1026 70.3498L39.0156 70.1753L38.2139 65.9806L38.1071 65.4215L37.5719 65.2279C35.8559 64.6072 34.2664 63.7076 32.8367 62.5684L32.407 62.226L31.8876 62.4051L27.7411 63.8347C27.7406 63.8349 27.7401 63.8351 27.7396 63.8352C27.6152 63.8772 27.4794 63.882 27.3514 63.8484C27.2232 63.8148 27.1132 63.7455 27.0337 63.6547L27.0311 63.6518L26.9422 63.5513C26.9419 63.551 26.9416 63.5507 26.9413 63.5504C25.2587 61.6335 23.9676 59.455 23.0914 57.0972L23.0478 56.9753L23.0479 56.9752L23.0433 56.9628C23.0042 56.8576 22.9992 56.7449 23.0284 56.6378C23.0577 56.5304 23.1213 56.4292 23.2165 56.3502L26.5654 53.5717L27.0104 53.2025L26.9124 52.6326C26.7653 51.7775 26.6934 50.8902 26.6934 49.9991C26.6934 49.1184 26.7652 48.2304 26.9127 47.3637L27.0096 46.7939L26.5642 46.4255L23.2087 43.6499C23.2083 43.6495 23.2078 43.6491 23.2074 43.6488C23.0132 43.4858 22.9564 43.242 23.0334 43.0347L23.0334 43.0348L23.0377 43.0229L23.0813 42.9007C23.955 40.5453 25.2587 38.3594 26.9313 36.4476C26.9319 36.447 26.9325 36.4463 26.9331 36.4457L27.0209 36.3463L27.021 36.3463L27.0252 36.3414C27.1041 36.2511 27.2133 36.182 27.341 36.1485C27.4686 36.115 27.6041 36.1201 27.7281 36.1624C27.7282 36.1625 27.7284 36.1625 27.7286 36.1626L31.8774 37.5931L32.3965 37.772L32.8261 37.4301C34.2457 36.3003 35.8467 35.401 37.5668 34.7684L38.0976 34.5731L38.2038 34.0176L39.0055 29.8228L39.0055 29.8228C39.0262 29.7142 39.0814 29.6097 39.1692 29.5249C39.2573 29.4399 39.374 29.3793 39.5053 29.3562L39.509 29.3556L39.6419 29.3317C39.6426 29.3316 39.6432 29.3315 39.6439 29.3313C42.1669 28.8896 44.8292 28.8896 47.3523 29.3313C47.3529 29.3315 47.3536 29.3316 47.3543 29.3317L47.4872 29.3556L47.4909 29.3562C47.6222 29.3793 47.7389 29.4399 47.827 29.5249C47.9148 29.6097 47.97 29.7142 47.9907 29.8228L48.7873 33.9976L48.894 34.5571L49.4297 34.7506C51.1624 35.3769 52.7621 36.2771 54.2011 37.4207L54.6307 37.7621L55.1494 37.5832L59.2653 36.1634C59.2658 36.1632 59.2663 36.1631 59.2668 36.1629C59.3912 36.1209 59.527 36.1162 59.6549 36.1497C59.7832 36.1834 59.8931 36.2527 59.9727 36.3434L59.9753 36.3463L60.0641 36.4467C60.0645 36.4471 60.0648 36.4476 60.0652 36.448C61.7407 38.3574 63.0444 40.5434 63.9146 42.8999C63.9152 42.9015 63.9158 42.9032 63.9164 42.9048L63.9585 43.0229L63.9584 43.0229L63.9631 43.0353C64.0022 43.1405 64.0071 43.2533 63.978 43.3603C63.9487 43.4677 63.885 43.569 63.7898 43.6479L60.472 46.3964L60.0277 46.7645L60.124 47.3334C60.272 48.2079 60.3485 49.111 60.3485 50.004C60.3485 50.8965 60.2721 51.795 60.1239 52.6755Z" fill="white" stroke="#1EA6E3" stroke-width="2"/>
<circle cx="44" cy="50" r="5.5" stroke="#1EA6E3"/>
<defs>
<filter id="filter0_d_136:805" x="32.8003" y="7.80029" width="111.022" height="111.022" filterUnits="userSpaceOnUse" color-interpolation-filters="sRGB">
<feFlood flood-opacity="0" result="BackgroundImageFix"/>
<feColorMatrix in="SourceAlpha" type="matrix" values="0 0 0 0 0 0 0 0 0 0 0 0 0 0 0 0 0 0 127 0" result="hardAlpha"/>
<feOffset dy="6"/>
<feGaussianBlur stdDeviation="7.5"/>
<feComposite in2="hardAlpha" operator="out"/>
<feColorMatrix type="matrix" values="0 0 0 0 0.354583 0 0 0 0 0.639333 0 0 0 0 0.766667 0 0 0 0.4 0"/>
<feBlend mode="normal" in2="BackgroundImageFix" result="effect1_dropShadow_136:805"/>
<feBlend mode="normal" in="SourceGraphic" in2="effect1_dropShadow_136:805" result="shape"/>
</filter>
</defs>
</svg>
