<svg width="166" height="166" viewBox="0 0 166 166" fill="none" xmlns="http://www.w3.org/2000/svg">
<circle cx="83.4464" cy="82.5031" r="60.443" stroke="#1EA6E3"/>
<path d="M42 137.785L58.8232 75L91.6647 83.7998L74.8415 146.585L62.9501 125.281L42 137.785Z" fill="white" stroke="#1EA6E3" stroke-width="2" stroke-linecap="round" stroke-linejoin="round"/>
<path d="M91.8232 146.585L75 83.7998L107.841 75L124.665 137.785L103.715 125.281L91.8232 146.585Z" fill="white" stroke="#1EA6E3" stroke-width="2" stroke-linecap="round" stroke-linejoin="round"/>
<path d="M85.5 100.5L96 138" stroke="#1EA6E3" stroke-linecap="round" stroke-linejoin="round"/>
<path d="M61 89L49.0933 132.726" stroke="#1EA6E3" stroke-linecap="round" stroke-linejoin="round"/>
<path d="M82.9106 95L71.0039 138.726" stroke="#1EA6E3" stroke-linecap="round" stroke-linejoin="round"/>
<path d="M105.5 89L117.5 132.5" stroke="#1EA6E3" stroke-linecap="round" stroke-linejoin="round"/>
<circle cx="86.0843" cy="59.0843" r="40.9036" fill="#1EA6E3"/>
<g>
<path d="M82.5577 13.1948C84.142 11.4745 86.858 11.4745 88.4423 13.1948L92.509 17.6104C93.6308 18.8285 95.3872 19.2294 96.9265 18.6187L102.506 16.4048C104.68 15.5423 107.127 16.7207 107.808 18.9581L109.556 24.7008C110.038 26.2851 111.447 27.4083 113.099 27.526L119.087 27.9523C121.419 28.1184 123.113 30.2418 122.756 32.5531L121.839 38.4856C121.586 40.1222 122.368 41.7453 123.805 42.568L129.015 45.5501C131.044 46.7119 131.649 49.3598 130.324 51.2872L126.924 56.2344C125.986 57.5992 125.986 59.4008 126.924 60.7656L130.324 65.7128C131.649 67.6402 131.044 70.2881 129.015 71.4499L123.805 74.432C122.368 75.2547 121.586 76.8778 121.839 78.5144L122.756 84.4469C123.113 86.7582 121.419 88.8816 119.087 89.0477L113.099 89.474C111.447 89.5917 110.038 90.7149 109.556 92.2992L107.808 98.0419C107.127 100.279 104.68 101.458 102.506 100.595L96.9265 98.3813C95.3872 97.7706 93.6308 98.1714 92.509 99.3896L88.4423 103.805C86.858 105.526 84.142 105.526 82.5577 103.805L78.4911 99.3896C77.3692 98.1715 75.6128 97.7706 74.0735 98.3813L68.4937 100.595C66.3199 101.458 63.8729 100.279 63.1919 98.0419L61.4438 92.2992C60.9616 90.7149 59.5531 89.5917 57.9013 89.474L51.9135 89.0477C49.5807 88.8816 47.8873 86.7582 48.2445 84.4469L49.1612 78.5144C49.4141 76.8778 48.6325 75.2547 47.1953 74.432L41.9854 71.4499C39.9557 70.2881 39.3513 67.6402 40.676 65.7128L44.076 60.7656C45.0139 59.4008 45.0139 57.5992 44.076 56.2344L40.676 51.2872C39.3513 49.3598 39.9557 46.7119 41.9854 45.5501L47.1953 42.568C48.6325 41.7453 49.4141 40.1222 49.1612 38.4856L48.2445 32.5531C47.8873 30.2418 49.5807 28.1184 51.9135 27.9523L57.9013 27.526C59.5531 27.4083 60.9616 26.2851 61.4438 24.7009L63.1919 18.9581C63.8729 16.7207 66.3199 15.5423 68.4937 16.4048L74.0735 18.6187C75.6128 19.2294 77.3692 18.8285 78.491 17.6104L82.5577 13.1948Z" fill="#1EA6E3"/>
<path d="M82.5577 13.1948C84.142 11.4745 86.858 11.4745 88.4423 13.1948L92.509 17.6104C93.6308 18.8285 95.3872 19.2294 96.9265 18.6187L102.506 16.4048C104.68 15.5423 107.127 16.7207 107.808 18.9581L109.556 24.7008C110.038 26.2851 111.447 27.4083 113.099 27.526L119.087 27.9523C121.419 28.1184 123.113 30.2418 122.756 32.5531L121.839 38.4856C121.586 40.1222 122.368 41.7453 123.805 42.568L129.015 45.5501C131.044 46.7119 131.649 49.3598 130.324 51.2872L126.924 56.2344C125.986 57.5992 125.986 59.4008 126.924 60.7656L130.324 65.7128C131.649 67.6402 131.044 70.2881 129.015 71.4499L123.805 74.432C122.368 75.2547 121.586 76.8778 121.839 78.5144L122.756 84.4469C123.113 86.7582 121.419 88.8816 119.087 89.0477L113.099 89.474C111.447 89.5917 110.038 90.7149 109.556 92.2992L107.808 98.0419C107.127 100.279 104.68 101.458 102.506 100.595L96.9265 98.3813C95.3872 97.7706 93.6308 98.1714 92.509 99.3896L88.4423 103.805C86.858 105.526 84.142 105.526 82.5577 103.805L78.4911 99.3896C77.3692 98.1715 75.6128 97.7706 74.0735 98.3813L68.4937 100.595C66.3199 101.458 63.8729 100.279 63.1919 98.0419L61.4438 92.2992C60.9616 90.7149 59.5531 89.5917 57.9013 89.474L51.9135 89.0477C49.5807 88.8816 47.8873 86.7582 48.2445 84.4469L49.1612 78.5144C49.4141 76.8778 48.6325 75.2547 47.1953 74.432L41.9854 71.4499C39.9557 70.2881 39.3513 67.6402 40.676 65.7128L44.076 60.7656C45.0139 59.4008 45.0139 57.5992 44.076 56.2344L40.676 51.2872C39.3513 49.3598 39.9557 46.7119 41.9854 45.5501L47.1953 42.568C48.6325 41.7453 49.4141 40.1222 49.1612 38.4856L48.2445 32.5531C47.8873 30.2418 49.5807 28.1184 51.9135 27.9523L57.9013 27.526C59.5531 27.4083 60.9616 26.2851 61.4438 24.7009L63.1919 18.9581C63.8729 16.7207 66.3199 15.5423 68.4937 16.4048L74.0735 18.6187C75.6128 19.2294 77.3692 18.8285 78.491 17.6104L82.5577 13.1948Z" stroke="#1EA6E3" stroke-width="2"/>
</g>
<circle cx="86" cy="59" r="35.5" fill="#1EA6E3" stroke="white"/>
<path d="M85.081 38.1423C85.4275 37.3346 86.5725 37.3346 86.919 38.1423L91.6287 49.1212C91.7749 49.4619 92.0977 49.6939 92.4673 49.7237L104.573 50.7008C105.464 50.7727 105.821 51.888 105.136 52.4631L95.966 60.1714C95.6756 60.4156 95.5483 60.803 95.6374 61.1718L98.422 72.6959C98.6298 73.5558 97.7008 74.2421 96.9399 73.7909L86.5101 67.6057C86.1956 67.4192 85.8044 67.4192 85.4899 67.6057L75.0601 73.7909C74.2992 74.2421 73.3702 73.5558 73.578 72.6959L76.3626 61.1718C76.4517 60.803 76.3244 60.4156 76.034 60.1714L66.8635 52.4631C66.1794 51.888 66.5357 50.7727 67.4265 50.7008L79.5327 49.7237C79.9023 49.6939 80.2251 49.4619 80.3713 49.1212L85.081 38.1423Z" stroke="white" stroke-width="2"/>
<defs>
<filter id="filter0_d_136:723" x="23.9717" y="1.90454" width="123.057" height="125.191" filterUnits="userSpaceOnUse" color-interpolation-filters="sRGB">
<feFlood flood-opacity="0" result="BackgroundImageFix"/>
<feColorMatrix in="SourceAlpha" type="matrix" values="0 0 0 0 0 0 0 0 0 0 0 0 0 0 0 0 0 0 127 0" result="hardAlpha"/>
<feOffset dy="6"/>
<feGaussianBlur stdDeviation="7.5"/>
<feComposite in2="hardAlpha" operator="out"/>
<feColorMatrix type="matrix" values="0 0 0 0 0.354583 0 0 0 0 0.639333 0 0 0 0 0.766667 0 0 0 0.4 0"/>
<feBlend mode="normal" in2="BackgroundImageFix" result="effect1_dropShadow_136:723"/>
<feBlend mode="normal" in="SourceGraphic" in2="effect1_dropShadow_136:723" result="shape"/>
</filter>
</defs>
</svg>
