<svg width="166" height="166" viewBox="0 0 166 166" fill="none" xmlns="http://www.w3.org/2000/svg">
<circle cx="83.4464" cy="82.5031" r="60.443" stroke="#1EA6E3"/>
<rect x="70" y="60" width="26" height="83" rx="3" fill="white" stroke="#1EA6E3" stroke-width="2"/>
<rect x="65" y="140" width="36" height="4" rx="2" fill="white" stroke="#1EA6E3" stroke-width="2"/>
<g>
<rect x="15" y="34" width="136" height="90" rx="4" fill="white"/>
<rect x="16" y="35" width="134" height="88" rx="3" stroke="#1EA6E3" stroke-width="2"/>
</g>
<path d="M17 36L149 36V103H17V36Z" fill="#1EA6E3" stroke="#1EA6E3" stroke-width="2"/>
<path d="M62.5 75V52.5" stroke="white" stroke-linecap="round" stroke-linejoin="round"/>
<path d="M60 52.5H67.5" stroke="white" stroke-linecap="round" stroke-linejoin="round"/>
<path d="M60 75.5H67.5" stroke="white" stroke-linecap="round" stroke-linejoin="round"/>
<path d="M114.217 87.5L74.5 87.5" stroke="white" stroke-linecap="round" stroke-linejoin="round"/>
<path d="M74.5 90L74.5 82" stroke="white" stroke-linecap="round" stroke-linejoin="round"/>
<path d="M114.5 90L114.5 82" stroke="white" stroke-linecap="round" stroke-linejoin="round"/>
<circle cx="83" cy="113" r="5" fill="#1EA6E3"/>
<path d="M24 45H42" stroke="white" stroke-width="2" stroke-linecap="round" stroke-linejoin="round"/>
<path d="M24 63H42" stroke="white" stroke-width="2" stroke-linecap="round" stroke-linejoin="round"/>
<path d="M24 57H42" stroke="white" stroke-width="2" stroke-linecap="round" stroke-linejoin="round"/>
<path d="M24 75H42" stroke="white" stroke-width="2" stroke-linecap="round" stroke-linejoin="round"/>
<path d="M24 51H42" stroke="white" stroke-width="2" stroke-linecap="round" stroke-linejoin="round"/>
<path d="M24 69H42" stroke="white" stroke-width="2" stroke-linecap="round" stroke-linejoin="round"/>
<rect x="75" y="53" width="39" height="22" stroke="white" stroke-width="2"/>
<path d="M84 53L76 60" stroke="white" stroke-linecap="round" stroke-linejoin="round"/>
<path d="M90 54.5L75 68.25" stroke="white" stroke-linecap="round" stroke-linejoin="round"/>
<path d="M98.75 53.25L76.25 74.5" stroke="white" stroke-linecap="round" stroke-linejoin="round"/>
<path d="M105 54.5L85 73.25" stroke="white" stroke-linecap="round" stroke-linejoin="round"/>
<path d="M112.5 54.5L92.5 73.25" stroke="white" stroke-linecap="round" stroke-linejoin="round"/>
<path d="M113.75 60.75L100 73.25" stroke="white" stroke-linecap="round" stroke-linejoin="round"/>
<path d="M113.75 68.25L107.5 73.25" stroke="white" stroke-linecap="round" stroke-linejoin="round"/>
<defs>
<filter id="filter0_d_136:773" x="0" y="25" width="166" height="120" filterUnits="userSpaceOnUse" color-interpolation-filters="sRGB">
<feFlood flood-opacity="0" result="BackgroundImageFix"/>
<feColorMatrix in="SourceAlpha" type="matrix" values="0 0 0 0 0 0 0 0 0 0 0 0 0 0 0 0 0 0 127 0" result="hardAlpha"/>
<feOffset dy="6"/>
<feGaussianBlur stdDeviation="7.5"/>
<feComposite in2="hardAlpha" operator="out"/>
<feColorMatrix type="matrix" values="0 0 0 0 0.354583 0 0 0 0 0.639333 0 0 0 0 0.766667 0 0 0 0.4 0"/>
<feBlend mode="normal" in2="BackgroundImageFix" result="effect1_dropShadow_136:773"/>
<feBlend mode="normal" in="SourceGraphic" in2="effect1_dropShadow_136:773" result="shape"/>
</filter>
</defs>
</svg>
